name C:\Users\u0101727\Documents\MyRepositories\upper-imu-dc\Results\main_tracking\Case_10\FLX01_angularVelocities_bodyFrame.mot
datacolumns 4
datarows 105
range 3.51000000 4.55000000
endheader 
time	radius_imu_x	radius_imu_y	radius_imu_z	
          3.51000000	          0.01625903	          0.27530813	          0.10281409	
          3.52000000	          0.02950295	          0.21067026	          0.10039285	
          3.53000000	          0.04180097	          0.14483774	          0.09663199	
          3.54000000	          0.05290375	          0.08086740	          0.09184101	
          3.55000000	          0.06262789	          0.02211851	          0.08639873	
          3.56000000	          0.07089354	         -0.02888888	          0.08070647	
          3.57000000	          0.07774464	         -0.07138110	          0.07512086	
          3.58000000	          0.08331492	         -0.10642854	          0.06988208	
          3.59000000	          0.08776192	         -0.13632830	          0.06506849	
          3.60000000	          0.09122218	         -0.16375864	          0.06060421	
          3.61000000	          0.09380598	         -0.19101680	          0.05631770	
          3.62000000	          0.09559805	         -0.21923652	          0.05201732	
          3.63000000	          0.09662237	         -0.24752779	          0.04754469	
          3.64000000	          0.09678893	         -0.27243868	          0.04279708	
          3.65000000	          0.09587965	         -0.28821901	          0.03773749	
          3.66000000	          0.09359554	         -0.28790290	          0.03240872	
          3.67000000	          0.08965258	         -0.26488258	          0.02695703	
          3.68000000	          0.08391683	         -0.21473505	          0.02166835	
          3.69000000	          0.07657474	         -0.13720243	          0.01701494	
          3.70000000	          0.06829656	         -0.03794304	          0.01368325	
          3.71000000	          0.06033154	          0.07143979	          0.01256444	
          3.72000000	          0.05425854	          0.17556779	          0.01463662	
          3.73000000	          0.05148462	          0.25916556	          0.02074677	
          3.74000000	          0.05294808	          0.31176682	          0.03142673	
          3.75000000	          0.05890588	          0.33049416	          0.04676006	
          3.76000000	          0.06882275	          0.32019522	          0.06635126	
          3.77000000	          0.08151544	          0.29176370	          0.08942667	
          3.78000000	          0.09543501	          0.25902969	          0.11500488	
          3.79000000	          0.10901132	          0.23510556	          0.14209705	
          3.80000000	          0.12098180	          0.22907300	          0.16988663	
          3.81000000	          0.13062797	          0.24386467	          0.19784828	
          3.82000000	          0.13786284	          0.27590389	          0.22578531	
          3.83000000	          0.14315109	          0.31651090	          0.25378642	
          3.84000000	          0.14729577	          0.35450452	          0.28212243	
          3.85000000	          0.15116348	          0.37915677	          0.31111723	
          3.86000000	          0.15543102	          0.38272105	          0.34103040	
          3.87000000	          0.16042272	          0.36195421	          0.37198077	
          3.88000000	          0.16606767	          0.31840765	          0.40392039	
          3.89000000	          0.17196715	          0.25763589	          0.43665182	
          3.90000000	          0.17753910	          0.18770295	          0.46987614	
          3.91000000	          0.18219208	          0.11742404	          0.50325657	
          3.92000000	          0.18547745	          0.05469458	          0.53648132	
          3.93000000	          0.18718011	          0.00514530	          0.56931155	
          3.94000000	          0.18733826	         -0.02871879	          0.60161232	
          3.95000000	          0.18621195	         -0.04776626	          0.63337360	
          3.96000000	          0.18422773	         -0.05577851	          0.66472531	
          3.97000000	          0.18191956	         -0.05833692	          0.69594139	
          3.98000000	          0.17987792	         -0.06135997	          0.72742554	
          3.99000000	          0.17871316	         -0.06973553	          0.75967751	
          4.00000000	          0.17902941	         -0.08641604	          0.79324324	
          4.01000000	          0.18139662	         -0.11211959	          0.82865088	
          4.02000000	          0.18630882	         -0.14555054	          0.86633405	
          4.03000000	          0.19412845	         -0.18391566	          0.90655051	
          4.04000000	          0.20503350	         -0.22352076	          0.94931289	
          4.05000000	          0.21899227	         -0.26038878	          0.99434866	
          4.06000000	          0.23577944	         -0.29100197	          1.04109603	
          4.07000000	          0.25502955	         -0.31323727	          1.08873399	
          4.08000000	          0.27631669	         -0.32734482	          1.13624239	
          4.09000000	          0.29925100	         -0.33661672	          1.18248758	
          4.10000000	          0.32357970	         -0.34739462	          1.22632462	
          4.11000000	          0.34927326	         -0.36829187	          1.26670233	
          4.12000000	          0.37657055	         -0.40879119	          1.30275104	
          4.13000000	          0.40595265	         -0.47748952	          1.33382865	
          4.14000000	          0.43802289	         -0.58019723	          1.35950768	
          4.15000000	          0.47329863	         -0.71807579	          1.37950957	
          4.16000000	          0.51195874	         -0.88609657	          1.39361469	
          4.17000000	          0.55361450	         -1.07222109	          1.40158503	
          4.18000000	          0.59717416	         -1.25771332	          1.40313294	
          4.19000000	          0.64085394	         -1.41882451	          1.39795637	
          4.20000000	          0.68235283	         -1.52977411	          1.38583759	
          4.21000000	          0.71917308	         -1.56670995	          1.36678283	
          4.22000000	          0.74905865	         -1.51234392	          1.34118157	
          4.23000000	          0.77052323	         -1.36091067	          1.30996905	
          4.24000000	          0.78337381	         -1.12233706	          1.27474496	
          4.25000000	          0.78900568	         -0.82325614	          1.23775054	
          4.26000000	          0.79023605	         -0.50281559	          1.20162406	
          4.27000000	          0.79069638	         -0.20430922	          1.16898248	
          4.28000000	          0.79407516	          0.03349978	          1.14198959	
          4.29000000	          0.80349848	          0.18214557	          1.12204894	
          4.30000000	          0.82114543	          0.22583260	          1.10966018	
          4.31000000	          0.84805546	          0.16172283	          1.10441118	
          4.32000000	          0.88405326	         -0.00040593	          1.10506599	
          4.33000000	          0.92773387	         -0.23842583	          1.10972203	
          4.34000000	          0.97649423	         -0.51841752	          1.11602561	
          4.35000000	          1.02667199	         -0.79688282	          1.12145330	
          4.36000000	          1.07392135	         -1.02622159	          1.12367456	
          4.37000000	          1.11392173	         -1.16386638	          1.12097932	
          4.38000000	          1.14330498	         -1.18277748	          1.11266785	
          4.39000000	          1.16042213	         -1.07861437	          1.09922490	
          4.40000000	          1.16561625	         -0.87016784	          1.08217070	
          4.41000000	          1.16105332	         -0.59456557	          1.06367026	
          4.42000000	          1.15038654	         -0.30095288	          1.04607023	
          4.43000000	          1.13827915	         -0.04295874	          1.03143760	
          4.44000000	          1.12956333	          0.13203939	          1.02111177	
          4.45000000	          1.12809660	          0.19527951	          1.01538764	
          4.46000000	          1.13580679	          0.14467916	          1.01351410	
          4.47000000	          1.15240375	          0.00388239	          1.01405036	
          4.48000000	          1.17583476	         -0.18699833	          1.01541595	
          4.49000000	          1.20316204	         -0.38385046	          1.01638747	
          4.50000000	          1.23144458	         -0.54896718	          1.01638019	
          4.51000000	          1.25843676	         -0.65760099	          1.01551834	
          4.52000000	          1.28310988	         -0.70145713	          1.01456920	
          4.53000000	          1.30589040	         -0.68878176	          1.01474980	
          4.54000000	          1.32843720	         -0.64004536	          1.01739458	
          4.55000000	          1.35301208	         -0.58061752	          1.02356653	
